grf
version=1
nRows=14
nColumns=37
inDegrees=no
endheader
time	ground_force_1_vx	ground_force_1_vy	ground_force_1_vz	ground_force_1_px	ground_force_1_py	ground_force_1_pz	ground_moment_1_mx	ground_moment_1_my	ground_moment_1_mz	ground_force_2_vx	ground_force_2_vy	ground_force_2_vz	ground_force_2_px	ground_force_2_py	ground_force_2_pz	ground_moment_2_mx	ground_moment_2_my	ground_moment_2_mz	ground_force_3_vx	ground_force_3_vy	ground_force_3_vz	ground_force_3_px	ground_force_3_py	ground_force_3_pz	ground_moment_3_mx	ground_moment_3_my	ground_moment_3_mz	ground_force_4_vx	ground_force_4_vy	ground_force_4_vz	ground_force_4_px	ground_force_4_py	ground_force_4_pz	ground_moment_4_mx	ground_moment_4_my	ground_moment_4_mz
      2.83000000	      0.00000000	     -0.00000000	      0.00000000	      0.00000000	      0.00000000	      0.00000000	      0.00000000	      0.00000000	      0.00000000	     -5.01597309	     -8.28912735	   -784.28637695	   -254.49050549	  -1044.55481835	      0.00000000	      0.00000000	     -0.00000000	  -1919.01459709	      0.00000000	     -0.00000000	      0.00000000	      0.00000000	      0.00000000	      0.00000000	      0.00000000	      0.00000000	      0.00000000	    -34.77920391	     16.11351126	     76.04270935	    604.99174127	   -564.03566719	      0.00000000	      0.00000000	     -0.00000000	     -9.84685649
      2.84000000	      0.00000000	     -0.00000000	      0.00000000	      0.00000000	      0.00000000	      0.00000000	      0.00000000	      0.00000000	      0.00000000	     -5.49950218	     -7.09021473	   -775.97082520	   -252.34767184	  -1045.51664395	      0.00000000	      0.00000000	     -0.00000000	  -2307.73452792	      0.00000000	     -0.00000000	      0.00000000	      0.00000000	      0.00000000	      0.00000000	      0.00000000	      0.00000000	      0.00000000	    -34.97826244	     16.16516228	     75.06795502	    606.65326046	   -564.84296318	      0.00000000	      0.00000000	     -0.00000000	    -20.57525787
      2.85000000	      0.00000000	     -0.00000000	      0.00000000	      0.00000000	      0.00000000	      0.00000000	      0.00000000	      0.00000000	      0.00000000	     -2.67631531	     -6.52657557	   -767.15100098	   -249.76187163	  -1045.67592224	      0.00000000	      0.00000000	     -0.00000000	  -2257.88080126	      0.00000000	     -0.00000000	      0.00000000	      0.00000000	      0.00000000	      0.00000000	      0.00000000	      0.00000000	      0.00000000	    -35.06771708	     16.35433122	     75.53329468	    606.78135836	   -563.00171239	      0.00000000	      0.00000000	     -0.00000000	   -186.13079527
      2.86000000	      0.00000000	     -0.00000000	      0.00000000	      0.00000000	      0.00000000	      0.00000000	      0.00000000	      0.00000000	      0.00000000	     -2.12105322	     -4.86064100	   -761.92480469	   -248.22919441	  -1047.52623713	      0.00000000	      0.00000000	     -0.00000000	  -2348.08608301	      0.00000000	     -0.00000000	      0.00000000	      0.00000000	      0.00000000	      0.00000000	      0.00000000	      0.00000000	      0.00000000	    -35.13722470	     16.01459810	     75.18204498	    608.49174623	   -562.98309122	      0.00000000	      0.00000000	     -0.00000000	    -81.61465625
      2.87000000	      0.00000000	     -0.00000000	      0.00000000	      0.00000000	      0.00000000	      0.00000000	      0.00000000	      0.00000000	      0.00000000	     -4.34192038	     -2.26810145	   -756.58630371	   -245.32760822	  -1047.66156789	      0.00000000	      0.00000000	     -0.00000000	  -2477.00213749	      0.00000000	     -0.00000000	      0.00000000	      0.00000000	      0.00000000	      0.00000000	      0.00000000	      0.00000000	      0.00000000	    -34.94848493	     16.03460617	     75.53276062	    605.13765720	   -563.26672812	      0.00000000	      0.00000000	     -0.00000000	   -136.63198680
      2.88000000	      0.00000000	     -0.00000000	      0.00000000	      0.00000000	      0.00000000	      0.00000000	      0.00000000	      0.00000000	      0.00000000	     -6.58168316	     -0.36614600	   -756.15820312	   -243.13441973	  -1048.24403530	      0.00000000	      0.00000000	     -0.00000000	  -2402.55100092	      0.00000000	     -0.00000000	      0.00000000	      0.00000000	      0.00000000	      0.00000000	      0.00000000	      0.00000000	      0.00000000	    -34.75937893	     16.12453192	     75.33737946	    607.07880324	   -563.42234733	      0.00000000	      0.00000000	     -0.00000000	   -180.96933959
      2.89000000	      0.00000000	     -0.00000000	      0.00000000	      0.00000000	      0.00000000	      0.00000000	      0.00000000	      0.00000000	      0.00000000	     -8.15779495	     -0.13860872	   -764.59521484	   -241.59858126	  -1049.28152790	      0.00000000	      0.00000000	     -0.00000000	  -2207.63423252	      0.00000000	     -0.00000000	      0.00000000	      0.00000000	      0.00000000	      0.00000000	      0.00000000	      0.00000000	      0.00000000	    -35.15717936	     16.36405680	     75.53228760	    605.02751926	   -564.09520845	      0.00000000	      0.00000000	     -0.00000000	   -229.73015062
      2.90000000	      0.00000000	     -0.00000000	      0.00000000	      0.00000000	      0.00000000	      0.00000000	      0.00000000	      0.00000000	      0.00000000	     -8.28643513	     -3.02030063	   -776.48406982	   -240.65397104	  -1050.19706459	      0.00000000	      0.00000000	     -0.00000000	  -1738.66373268	      0.00000000	     -0.00000000	      0.00000000	      0.00000000	      0.00000000	      0.00000000	      0.00000000	      0.00000000	      0.00000000	    -34.84935621	     16.00397033	     76.62640381	    601.15030501	   -559.61851875	      0.00000000	      0.00000000	     -0.00000000	   -142.96316148
      2.91000000	      0.00000000	     -0.00000000	      0.00000000	      0.00000000	      0.00000000	      0.00000000	      0.00000000	      0.00000000	      0.00000000	     -9.43662262	     -5.13945532	   -781.11944580	   -239.12070150	  -1050.62264413	      0.00000000	      0.00000000	     -0.00000000	  -1522.77398728	      0.00000000	     -0.00000000	      0.00000000	      0.00000000	      0.00000000	      0.00000000	      0.00000000	      0.00000000	      0.00000000	    -34.84950494	     16.40516777	     75.80566406	    603.48104626	   -565.48301482	      0.00000000	      0.00000000	     -0.00000000	   -153.84255915
      2.92000000	      0.00000000	     -0.00000000	      0.00000000	      0.00000000	      0.00000000	      0.00000000	      0.00000000	      0.00000000	      0.00000000	     -9.92032242	     -4.63478088	   -785.12561035	   -237.56386202	  -1052.65178025	      0.00000000	      0.00000000	     -0.00000000	  -1303.66352457	      0.00000000	     -0.00000000	      0.00000000	      0.00000000	      0.00000000	      0.00000000	      0.00000000	      0.00000000	      0.00000000	    -34.96975568	     16.01459809	     76.66129303	    601.50947885	   -559.95991127	      0.00000000	      0.00000000	     -0.00000000	   -212.61179471
      2.93000000	      0.00000000	     -0.00000000	      0.00000000	      0.00000000	      0.00000000	      0.00000000	      0.00000000	      0.00000000	      0.00000000	    -10.86409664	     -1.53478479	   -780.57067871	   -235.08838732	  -1053.61483431	      0.00000000	      0.00000000	      0.00000000	  -1437.23549664	      0.00000000	     -0.00000000	      0.00000000	      0.00000000	      0.00000000	      0.00000000	      0.00000000	      0.00000000	      0.00000000	    -34.99780134	     15.93291970	     75.33374023	    606.81510314	   -563.77612039	      0.00000000	      0.00000000	      0.00000000	     64.39730886
      2.94000000	      0.00000000	     -0.00000000	      0.00000000	      0.00000000	      0.00000000	      0.00000000	      0.00000000	      0.00000000	      0.00000000	    -14.88698578	      0.43731862	   -772.87915039	   -231.49488409	  -1054.59210200	      0.00000000	     -0.00000000	     -0.00000000	  -1355.28770958	      0.00000000	     -0.00000000	      0.00000000	      0.00000000	      0.00000000	      0.00000000	      0.00000000	      0.00000000	      0.00000000	    -34.64775705	     16.37823026	     74.90553284	    606.45810666	   -564.85542303	      0.00000000	      0.00000000	     -0.00000000	   -176.58154236
      2.95000000	      0.00000000	     -0.00000000	      0.00000000	      0.00000000	      0.00000000	      0.00000000	      0.00000000	      0.00000000	      0.00000000	    -18.98237991	      1.03875649	   -769.94537354	   -228.49981288	  -1055.20448196	      0.00000000	      0.00000000	      0.00000000	  -1495.58678109	      0.00000000	     -0.00000000	      0.00000000	      0.00000000	      0.00000000	      0.00000000	      0.00000000	      0.00000000	      0.00000000	    -34.90058758	     16.15547867	     75.83561707	    603.37057194	   -563.19173234	      0.00000000	      0.00000000	     -0.00000000	   -141.96056353
      2.96000000	      0.00000000	     -0.00000000	      0.00000000	      0.00000000	      0.00000000	      0.00000000	      0.00000000	      0.00000000	      0.00000000	    -20.78604889	      1.39513862	   -773.97094727	   -226.91731997	  -1056.95258510	      0.00000000	      0.00000000	     -0.00000000	  -1356.10398159	      0.00000000	     -0.00000000	      0.00000000	      0.00000000	      0.00000000	      0.00000000	      0.00000000	      0.00000000	      0.00000000	    -34.86943677	     15.99512119	     75.91056061	    601.60492987	   -564.53489671	      0.00000000	      0.00000000	      0.00000000	     29.80415613
